<?xml version="1.0" encoding="utf-8"?>
<svg xmlns="http://www.w3.org/2000/svg" xmlns:xlink="http://www.w3.org/1999/xlink" style="margin: auto; background: rgb(255, 255, 255); display: block; shape-rendering: auto;" width="207px" height="207px" viewBox="0 0 100 100" preserveAspectRatio="xMidYMid">
<g transform="rotate(0 50 50)">
  <rect x="47" y="24" rx="2.4" ry="2.4" width="6" height="12" fill="#008ce3">
    <animate attributeName="opacity" values="1;0" keyTimes="0;1" dur="0.7633587786259541s" begin="-0.6997455470737913s" repeatCount="indefinite"></animate>
  </rect>
</g><g transform="rotate(30 50 50)">
  <rect x="47" y="24" rx="2.4" ry="2.4" width="6" height="12" fill="#008ce3">
    <animate attributeName="opacity" values="1;0" keyTimes="0;1" dur="0.7633587786259541s" begin="-0.6361323155216285s" repeatCount="indefinite"></animate>
  </rect>
</g><g transform="rotate(60 50 50)">
  <rect x="47" y="24" rx="2.4" ry="2.4" width="6" height="12" fill="#008ce3">
    <animate attributeName="opacity" values="1;0" keyTimes="0;1" dur="0.7633587786259541s" begin="-0.5725190839694656s" repeatCount="indefinite"></animate>
  </rect>
</g><g transform="rotate(90 50 50)">
  <rect x="47" y="24" rx="2.4" ry="2.4" width="6" height="12" fill="#008ce3">
    <animate attributeName="opacity" values="1;0" keyTimes="0;1" dur="0.7633587786259541s" begin="-0.5089058524173028s" repeatCount="indefinite"></animate>
  </rect>
</g><g transform="rotate(120 50 50)">
  <rect x="47" y="24" rx="2.4" ry="2.4" width="6" height="12" fill="#008ce3">
    <animate attributeName="opacity" values="1;0" keyTimes="0;1" dur="0.7633587786259541s" begin="-0.44529262086513993s" repeatCount="indefinite"></animate>
  </rect>
</g><g transform="rotate(150 50 50)">
  <rect x="47" y="24" rx="2.4" ry="2.4" width="6" height="12" fill="#008ce3">
    <animate attributeName="opacity" values="1;0" keyTimes="0;1" dur="0.7633587786259541s" begin="-0.38167938931297707s" repeatCount="indefinite"></animate>
  </rect>
</g><g transform="rotate(180 50 50)">
  <rect x="47" y="24" rx="2.4" ry="2.4" width="6" height="12" fill="#008ce3">
    <animate attributeName="opacity" values="1;0" keyTimes="0;1" dur="0.7633587786259541s" begin="-0.31806615776081426s" repeatCount="indefinite"></animate>
  </rect>
</g><g transform="rotate(210 50 50)">
  <rect x="47" y="24" rx="2.4" ry="2.4" width="6" height="12" fill="#008ce3">
    <animate attributeName="opacity" values="1;0" keyTimes="0;1" dur="0.7633587786259541s" begin="-0.2544529262086514s" repeatCount="indefinite"></animate>
  </rect>
</g><g transform="rotate(240 50 50)">
  <rect x="47" y="24" rx="2.4" ry="2.4" width="6" height="12" fill="#008ce3">
    <animate attributeName="opacity" values="1;0" keyTimes="0;1" dur="0.7633587786259541s" begin="-0.19083969465648853s" repeatCount="indefinite"></animate>
  </rect>
</g><g transform="rotate(270 50 50)">
  <rect x="47" y="24" rx="2.4" ry="2.4" width="6" height="12" fill="#008ce3">
    <animate attributeName="opacity" values="1;0" keyTimes="0;1" dur="0.7633587786259541s" begin="-0.1272264631043257s" repeatCount="indefinite"></animate>
  </rect>
</g><g transform="rotate(300 50 50)">
  <rect x="47" y="24" rx="2.4" ry="2.4" width="6" height="12" fill="#008ce3">
    <animate attributeName="opacity" values="1;0" keyTimes="0;1" dur="0.7633587786259541s" begin="-0.06361323155216285s" repeatCount="indefinite"></animate>
  </rect>
</g><g transform="rotate(330 50 50)">
  <rect x="47" y="24" rx="2.4" ry="2.4" width="6" height="12" fill="#008ce3">
    <animate attributeName="opacity" values="1;0" keyTimes="0;1" dur="0.7633587786259541s" begin="0s" repeatCount="indefinite"></animate>
  </rect>
</g>
<!-- [ldio] generated by https://loading.io/ --></svg>